<svg width="26" height="27" viewBox="0 0 26 27" fill="none" xmlns="http://www.w3.org/2000/svg">
<g clip-path="url(#clip0_373_165)">
<path d="M17.4696 17.6747L17.4696 17.6747L15.0477 20.6337L15.0356 20.6484L15.0184 20.6403C11.2124 18.8458 8.14938 15.7828 6.35487 11.9768L6.34674 11.9595L6.36149 11.9475L9.32047 9.52559L9.32053 9.52554C9.51352 9.36857 9.65012 9.153 9.70964 8.91146C9.76917 8.66993 9.74837 8.41557 9.65041 8.18691L7.30672 2.7183C7.30671 2.71826 7.30669 2.71822 7.30667 2.71818C7.19912 2.47169 7.00896 2.27044 6.76894 2.14913C6.52891 2.0278 6.25406 1.99403 5.99179 2.05363C5.99177 2.05363 5.99176 2.05363 5.99174 2.05364L0.913696 3.22549C0.913695 3.22549 0.913694 3.22549 0.913693 3.22549C0.660856 3.28388 0.435274 3.42624 0.273765 3.62934C0.112255 3.83245 0.0243558 4.0843 0.0244141 4.34379V4.3438C0.0244141 16.8547 10.1648 26.9756 22.6563 26.9756C22.9158 26.9758 23.1678 26.8879 23.371 26.7264C23.5742 26.5649 23.7166 26.3393 23.775 26.0863L24.9469 21.0084C25.0061 20.7448 24.9716 20.4688 24.8493 20.2279C24.7271 19.987 24.5247 19.7963 24.277 19.6885L17.4696 17.6747ZM17.4696 17.6747C17.6269 17.4821 17.8424 17.3457 18.0839 17.2862C18.3253 17.2267 18.5795 17.2473 18.8083 17.3448L24.2769 19.6884L17.4696 17.6747Z" fill="#054161" stroke="#054161" stroke-width="0.0488281"/>
</g>
<path d="M25.9991 2.04344C26.023 1.49167 25.5952 1.02493 25.0434 1.00094L16.0519 0.610009C15.5002 0.58602 15.0334 1.01386 15.0094 1.56563C14.9854 2.11739 15.4133 2.58413 15.9651 2.60812L23.9575 2.95562L23.61 10.9481C23.586 11.4998 24.0139 11.9666 24.5656 11.9906C25.1174 12.0146 25.5841 11.5867 25.6081 11.0349L25.9991 2.04344ZM13.6757 13.7372L25.6757 2.73715L24.3243 1.26285L12.3243 12.2628L13.6757 13.7372Z" fill="#054161"/>
<defs>
<clipPath id="clip0_373_165">
<rect width="25" height="25" fill="white" transform="translate(0 2)"/>
</clipPath>
</defs>
</svg>
